<svg width="225" height="41" viewBox="0 0 225 41" fill="none" xmlns="http://www.w3.org/2000/svg">
<path d="M11.8651 40.08C10.4403 41.3861 8.22601 41.29 6.91983 39.8651C5.61368 38.4403 5.70984 36.226 7.13467 34.9198L19.1347 23.9198C20.4728 22.6932 22.527 22.6932 23.8651 23.9198L35.8651 34.9198C37.29 36.226 37.3861 38.4403 36.08 39.8651C34.7738 41.29 32.5596 41.3861 31.1347 40.08L21.4999 31.2489L11.8651 40.08Z" fill="#FFCC02"/>
<path d="M23.7372 17.1915C22.3989 18.3054 20.4309 18.2684 19.1347 17.0801L7.13468 6.08013C5.70984 4.77394 5.61369 2.5597 6.91983 1.13481C8.22602 -0.290017 10.4403 -0.386176 11.8651 0.919971L21.4999 9.752L31.1347 0.919973C32.5596 -0.386174 34.7738 -0.290015 36.08 1.13482C37.3861 2.5597 37.29 4.77395 35.8651 6.08013L23.8651 17.0801L23.7372 17.1915Z" fill="#FFCC02"/>
<path d="M3.5 24C1.56701 24 1.36992e-07 22.433 3.0598e-07 20.5C4.74968e-07 18.567 1.56701 17 3.5 17L39.5 17C41.433 17 43 18.567 43 20.5C43 22.433 41.433 24 39.5 24L3.5 24Z" fill="#FFCC02"/>
<path d="M217.275 36.8531L209.408 25.8732H205.906L215.892 13.3803H222.16L212.952 24.9222L213.082 21.8962L224.062 36.8531H217.275ZM200.849 36.8531V5.29663H206.857V36.8531H200.849Z" fill="white"/>
<path d="M182.823 36.8531V13.3802H187.578V23.3227H187.449C187.449 19.9509 188.169 17.4004 189.61 15.6713C191.051 13.9422 193.169 13.0776 195.965 13.0776H196.829V18.3082H195.186C193.169 18.3082 191.599 18.8558 190.475 19.9509C189.379 21.0172 188.832 22.5734 188.832 24.6195V36.8531H182.823Z" fill="white"/>
<path d="M164.766 37.6743C162.692 37.6743 160.862 37.3429 159.277 36.6801C157.691 36.0172 156.351 35.1239 155.256 33.9999C154.161 32.8472 153.325 31.5504 152.749 30.1094C152.202 28.6685 151.928 27.1699 151.928 25.6137V24.7059C151.928 23.0921 152.216 21.5647 152.792 20.1237C153.397 18.654 154.248 17.3571 155.343 16.2332C156.467 15.0805 157.821 14.1871 159.406 13.5531C160.991 12.8903 162.778 12.5588 164.766 12.5588C166.755 12.5588 168.542 12.8903 170.127 13.5531C171.712 14.1871 173.052 15.0805 174.147 16.2332C175.271 17.3571 176.121 18.654 176.697 20.1237C177.274 21.5647 177.562 23.0921 177.562 24.7059V25.6137C177.562 27.1699 177.274 28.6685 176.697 30.1094C176.15 31.5504 175.329 32.8472 174.233 33.9999C173.138 35.1239 171.798 36.0172 170.213 36.6801C168.628 37.3429 166.813 37.6743 164.766 37.6743ZM164.766 32.5302C166.236 32.5302 167.475 32.2132 168.484 31.5792C169.493 30.9163 170.256 30.0374 170.775 28.9423C171.294 27.8183 171.553 26.5503 171.553 25.1382C171.553 23.6973 171.279 22.4292 170.732 21.3341C170.213 20.2102 169.435 19.3312 168.398 18.6972C167.389 18.0344 166.179 17.703 164.766 17.703C163.354 17.703 162.13 18.0344 161.092 18.6972C160.083 19.3312 159.305 20.2102 158.758 21.3341C158.21 22.4292 157.936 23.6973 157.936 25.1382C157.936 26.5503 158.196 27.8183 158.715 28.9423C159.262 30.0374 160.04 30.9163 161.049 31.5792C162.058 32.2132 163.297 32.5302 164.766 32.5302Z" fill="white"/>
<path d="M130.319 36.8531V5.29663H136.458V36.8531H130.319ZM135.593 23.7118V18.5244L148.216 18.4812V23.6685L135.593 23.7118ZM135.593 10.484V5.29663H148.821V10.484H135.593Z" fill="white"/>
<path d="M113.542 37.6743C111.525 37.6743 109.752 37.3285 108.225 36.6369C106.726 35.9452 105.473 35.023 104.464 33.8703C103.484 32.6887 102.735 31.3774 102.216 29.9365C101.726 28.4956 101.481 27.0258 101.481 25.5272V24.7059C101.481 23.1497 101.726 21.6511 102.216 20.2102C102.735 18.7404 103.484 17.4436 104.464 16.3197C105.473 15.1669 106.712 14.2591 108.182 13.5963C109.652 12.9047 111.352 12.5588 113.283 12.5588C115.819 12.5588 117.937 13.1208 119.637 14.2447C121.366 15.3398 122.663 16.7952 123.528 18.6108C124.392 20.3975 124.825 22.3284 124.825 24.4033V26.5647H104.032V22.8903H121.064L119.205 24.7059C119.205 23.2073 118.989 21.9249 118.557 20.8586C118.124 19.7923 117.461 18.971 116.568 18.3946C115.703 17.8182 114.608 17.5301 113.283 17.5301C111.957 17.5301 110.833 17.8327 109.911 18.4379C108.989 19.043 108.283 19.922 107.793 21.0748C107.332 22.1987 107.101 23.5532 107.101 25.1382C107.101 26.6079 107.332 27.9192 107.793 29.0719C108.254 30.1959 108.96 31.0893 109.911 31.7521C110.862 32.3861 112.072 32.7031 113.542 32.7031C115.012 32.7031 116.208 32.4149 117.13 31.8385C118.052 31.2333 118.643 30.4985 118.902 29.6339H124.436C124.09 31.2478 123.427 32.6599 122.447 33.8703C121.467 35.0806 120.214 36.0172 118.686 36.6801C117.188 37.3429 115.473 37.6743 113.542 37.6743Z" fill="white"/>
<path d="M90.169 36.8531V5.29663H96.1777V36.8531H90.169ZM87.2295 9.79234V5.29663H96.1777V9.79234H87.2295Z" fill="white"/>
<path d="M76.9328 36.853V13.3802H82.9415V36.853H76.9328ZM73.6475 17.8759V13.3802H82.9415V17.8759H73.6475ZM79.1374 10.5704C77.9559 10.5704 77.0769 10.2678 76.5005 9.66261C75.953 9.0286 75.6792 8.2505 75.6792 7.3283C75.6792 6.34847 75.953 5.55595 76.5005 4.95076C77.0769 4.34557 77.9559 4.04297 79.1374 4.04297C80.319 4.04297 81.1835 4.34557 81.7311 4.95076C82.2787 5.55595 82.5524 6.34847 82.5524 7.3283C82.5524 8.2505 82.2787 9.0286 81.7311 9.66261C81.1835 10.2678 80.319 10.5704 79.1374 10.5704Z" fill="white"/>
<path d="M52.3906 36.8531V5.29663H58.529V36.8531H52.3906ZM57.6644 23.7118V18.5244L70.287 18.4812V23.6685L57.6644 23.7118ZM57.6644 10.484V5.29663H70.8922V10.484H57.6644Z" fill="white"/>
</svg>
