<svg width="43" height="41" viewBox="0 0 43 41" fill="none" xmlns="http://www.w3.org/2000/svg">
<path d="M11.8651 40.08C10.4403 41.3862 8.22601 41.29 6.91983 39.8652C5.61368 38.4403 5.70984 36.2261 7.13467 34.9199L19.1347 23.9199C20.4728 22.6933 22.527 22.6933 23.8651 23.9199L35.8651 34.9199C37.29 36.2261 37.3861 38.4403 36.08 39.8652C34.7738 41.29 32.5596 41.3862 31.1347 40.08L21.4999 31.249L11.8651 40.08Z" fill="white"/>
<path d="M23.7372 17.1915C22.3989 18.3054 20.4309 18.2684 19.1347 17.0802L7.13468 6.08017C5.70984 4.77398 5.61369 2.55974 6.91983 1.13486C8.22602 -0.289975 10.4403 -0.386134 11.8651 0.920013L21.4999 9.75205L31.1347 0.920015C32.5596 -0.386132 34.7738 -0.289973 36.08 1.13486C37.3861 2.55975 37.29 4.77399 35.8651 6.08017L23.8651 17.0802L23.7372 17.1915Z" fill="white"/>
<path d="M3.5 24C1.56701 24 1.36992e-07 22.433 3.0598e-07 20.5C4.74968e-07 18.567 1.56701 17 3.5 17L39.5 17C41.433 17 43 18.567 43 20.5C43 22.433 41.433 24 39.5 24L3.5 24Z" fill="white"/>
</svg>
